<svg width="121" height="57" viewBox="0 0 121 57" fill="none" xmlns="http://www.w3.org/2000/svg">
<g filter="url(#filter0_d_387_205)">
<path fill-rule="evenodd" clip-rule="evenodd" d="M60.4229 54.8898C93.2413 54.8898 119.846 42.6023 119.846 27.4449C119.846 12.2875 93.2413 0 60.4229 0C27.6045 0 1 12.2875 1 27.4449C1 42.6023 27.6045 54.8898 60.4229 54.8898ZM60.4229 52.0658C91.6493 52.0658 116.963 41.0032 116.963 27.3566C116.963 13.7101 91.6493 2.64742 60.4229 2.64742C29.1965 2.64742 3.88245 13.7101 3.88245 27.3566C3.88245 41.0032 29.1965 52.0658 60.4229 52.0658Z" fill="#071F9C"/>
<path fill-rule="evenodd" clip-rule="evenodd" d="M60.4229 54.8898C93.2413 54.8898 119.846 42.6023 119.846 27.4449C119.846 12.2875 93.2413 0 60.4229 0C27.6045 0 1 12.2875 1 27.4449C1 42.6023 27.6045 54.8898 60.4229 54.8898ZM60.4229 52.0658C91.6493 52.0658 116.963 41.0032 116.963 27.3566C116.963 13.7101 91.6493 2.64742 60.4229 2.64742C29.1965 2.64742 3.88245 13.7101 3.88245 27.3566C3.88245 41.0032 29.1965 52.0658 60.4229 52.0658Z" fill="url(#paint0_radial_387_205)" fill-opacity="0.35"/>
<path fill-rule="evenodd" clip-rule="evenodd" d="M60.4229 54.8898C93.2413 54.8898 119.846 42.6023 119.846 27.4449C119.846 12.2875 93.2413 0 60.4229 0C27.6045 0 1 12.2875 1 27.4449C1 42.6023 27.6045 54.8898 60.4229 54.8898ZM60.4229 52.0658C91.6493 52.0658 116.963 41.0032 116.963 27.3566C116.963 13.7101 91.6493 2.64742 60.4229 2.64742C29.1965 2.64742 3.88245 13.7101 3.88245 27.3566C3.88245 41.0032 29.1965 52.0658 60.4229 52.0658Z" fill="url(#paint1_linear_387_205)" fill-opacity="0.9"/>
<path fill-rule="evenodd" clip-rule="evenodd" d="M81.487 17.0292H65.8552H56.5427H41.3544C40.6892 17.0292 39.9131 16.6762 39.9131 16.235C39.9131 15.529 39.6914 9.88118 39.6914 9.88118H40.8C40.9917 10.2627 41.432 10.3143 41.9776 10.3784C42.0631 10.3884 42.1512 10.3987 42.2413 10.4107L80.1566 10.4989C80.8218 10.4989 81.3761 10.4107 81.7087 9.88118H82.9282C82.9282 9.88118 82.9282 15.7055 82.9282 16.235C82.9282 16.6762 82.3739 17.0292 81.487 17.0292ZM41.2435 15.529C41.2435 16.1467 42.0196 16.235 42.9065 16.235H79.9349C80.711 16.235 81.487 15.9702 81.487 15.529H41.2435ZM81.487 14.6465H79.9349V15.176H81.487V14.6465Z" fill="#FDFDFD"/>
<path fill-rule="evenodd" clip-rule="evenodd" d="M81.487 17.0292H65.8552H56.5427H41.3544C40.6892 17.0292 39.9131 16.6762 39.9131 16.235C39.9131 15.529 39.6914 9.88118 39.6914 9.88118H40.8C40.9917 10.2627 41.432 10.3143 41.9776 10.3784C42.0631 10.3884 42.1512 10.3987 42.2413 10.4107L80.1566 10.4989C80.8218 10.4989 81.3761 10.4107 81.7087 9.88118H82.9282C82.9282 9.88118 82.9282 15.7055 82.9282 16.235C82.9282 16.6762 82.3739 17.0292 81.487 17.0292ZM41.2435 15.529C41.2435 16.1467 42.0196 16.235 42.9065 16.235H79.9349C80.711 16.235 81.487 15.9702 81.487 15.529H41.2435ZM81.487 14.6465H79.9349V15.176H81.487V14.6465Z" fill="#97E1F8"/>
<path d="M56.5427 17.0292V19.5001H65.8552V17.0292H56.5427Z" fill="#FDFDFD"/>
<path d="M56.5427 17.0292V19.5001H65.8552V17.0292H56.5427Z" fill="#97E1F8"/>
<path fill-rule="evenodd" clip-rule="evenodd" d="M71.2875 19.5014H51.7755V20.3839C53.2167 20.2956 53.771 21.4429 53.4384 21.9723L40.1348 45.4461C40.249 45.5556 39.3867 46.1144 38.5827 46.0638C38.2806 46.0448 37.8066 46.0638 37.8066 46.0638V46.858H49.0039V45.9756C48.2278 45.9756 47.3409 45.7108 47.23 45.2696C47.1192 44.8284 47.5626 44.2106 47.5626 44.2106L49.8908 40.3278H56.5426V45.0049C56.3209 45.4461 55.3231 46.0638 54.3253 46.0638V46.858H68.0724V45.9756C66.9638 46.0638 65.8551 45.7991 65.8551 45.3578V38.8275L71.3983 45.2696V45.9756H70.1788V46.858H81.8195V45.9756C81.8195 45.9756 80.9339 45.9347 80.4891 45.7991C80.0594 45.668 79.7131 45.3578 79.7131 45.3578L71.2875 35.6507C84.3694 34.4152 82.4847 20.5604 71.2875 19.5014ZM65.8551 31.2383V24.355H70.1788C75.0568 25.5022 73.5047 31.0618 69.7354 31.15L65.8551 31.2383ZM52.1081 36.1801H56.5426V28.8556L52.1081 36.1801Z" fill="#071F9C"/>
<path fill-rule="evenodd" clip-rule="evenodd" d="M71.2875 19.5014H51.7755V20.3839C53.2167 20.2956 53.771 21.4429 53.4384 21.9723L40.1348 45.4461C40.249 45.5556 39.3867 46.1144 38.5827 46.0638C38.2806 46.0448 37.8066 46.0638 37.8066 46.0638V46.858H49.0039V45.9756C48.2278 45.9756 47.3409 45.7108 47.23 45.2696C47.1192 44.8284 47.5626 44.2106 47.5626 44.2106L49.8908 40.3278H56.5426V45.0049C56.3209 45.4461 55.3231 46.0638 54.3253 46.0638V46.858H68.0724V45.9756C66.9638 46.0638 65.8551 45.7991 65.8551 45.3578V38.8275L71.3983 45.2696V45.9756H70.1788V46.858H81.8195V45.9756C81.8195 45.9756 80.9339 45.9347 80.4891 45.7991C80.0594 45.668 79.7131 45.3578 79.7131 45.3578L71.2875 35.6507C84.3694 34.4152 82.4847 20.5604 71.2875 19.5014ZM65.8551 31.2383V24.355H70.1788C75.0568 25.5022 73.5047 31.0618 69.7354 31.15L65.8551 31.2383ZM52.1081 36.1801H56.5426V28.8556L52.1081 36.1801Z" fill="url(#paint2_radial_387_205)" fill-opacity="0.35"/>
<path fill-rule="evenodd" clip-rule="evenodd" d="M71.2875 19.5014H51.7755V20.3839C53.2167 20.2956 53.771 21.4429 53.4384 21.9723L40.1348 45.4461C40.249 45.5556 39.3867 46.1144 38.5827 46.0638C38.2806 46.0448 37.8066 46.0638 37.8066 46.0638V46.858H49.0039V45.9756C48.2278 45.9756 47.3409 45.7108 47.23 45.2696C47.1192 44.8284 47.5626 44.2106 47.5626 44.2106L49.8908 40.3278H56.5426V45.0049C56.3209 45.4461 55.3231 46.0638 54.3253 46.0638V46.858H68.0724V45.9756C66.9638 46.0638 65.8551 45.7991 65.8551 45.3578V38.8275L71.3983 45.2696V45.9756H70.1788V46.858H81.8195V45.9756C81.8195 45.9756 80.9339 45.9347 80.4891 45.7991C80.0594 45.668 79.7131 45.3578 79.7131 45.3578L71.2875 35.6507C84.3694 34.4152 82.4847 20.5604 71.2875 19.5014ZM65.8551 31.2383V24.355H70.1788C75.0568 25.5022 73.5047 31.0618 69.7354 31.15L65.8551 31.2383ZM52.1081 36.1801H56.5426V28.8556L52.1081 36.1801Z" fill="url(#paint3_linear_387_205)" fill-opacity="0.8"/>
</g>
<defs>
<filter id="filter0_d_387_205" x="0" y="0" width="120.848" height="56.8896" filterUnits="userSpaceOnUse" color-interpolation-filters="sRGB">
<feFlood flood-opacity="0" result="BackgroundImageFix"/>
<feColorMatrix in="SourceAlpha" type="matrix" values="0 0 0 0 0 0 0 0 0 0 0 0 0 0 0 0 0 0 127 0" result="hardAlpha"/>
<feOffset dy="1"/>
<feGaussianBlur stdDeviation="0.5"/>
<feComposite in2="hardAlpha" operator="out"/>
<feColorMatrix type="matrix" values="0 0 0 0 0 0 0 0 0 0 0 0 0 0 0 0 0 0 0.33 0"/>
<feBlend mode="normal" in2="BackgroundImageFix" result="effect1_dropShadow_387_205"/>
<feBlend mode="normal" in="SourceGraphic" in2="effect1_dropShadow_387_205" result="shape"/>
</filter>
<radialGradient id="paint0_radial_387_205" cx="0" cy="0" r="1" gradientUnits="userSpaceOnUse" gradientTransform="translate(61.5316 -3.26514) rotate(90.0945) scale(67.2445 83.1268)">
<stop offset="0.178632" stop-color="#010B2E"/>
<stop offset="0.485851" stop-color="#0338F6"/>
<stop offset="0.775968" stop-color="#0338F6"/>
<stop offset="0.87077" stop-color="#02043A"/>
</radialGradient>
<linearGradient id="paint1_linear_387_205" x1="122.95" y1="16.1492" x2="-12.8694" y2="36.4588" gradientUnits="userSpaceOnUse">
<stop offset="0.34375" stop-color="#1437F4"/>
<stop offset="0.489583" stop-color="#AAE7FB"/>
<stop offset="0.635417" stop-color="#1437F4"/>
</linearGradient>
<radialGradient id="paint2_radial_387_205" cx="0" cy="0" r="1" gradientUnits="userSpaceOnUse" gradientTransform="translate(61.4186 38.4746) rotate(88.4882) scale(21.0101 18.0327)">
<stop offset="0.357898" stop-color="#2546FA"/>
<stop offset="0.801021" stop-color="#030149"/>
</radialGradient>
<linearGradient id="paint3_linear_387_205" x1="67.8649" y1="52.3898" x2="56.4663" y2="14.7997" gradientUnits="userSpaceOnUse">
<stop offset="0.557525" stop-color="#1437F5"/>
<stop offset="0.931494" stop-color="#8FDEFA"/>
<stop offset="1" stop-color="#1437F5"/>
<stop offset="1" stop-color="#83EDFC"/>
</linearGradient>
</defs>
</svg>
